{
  "accessors": [
    {
      "name": "ceramic_vase_01_Cylinder.009-Mesh_0_positions",
      "componentType": 5126,
      "count": 5546,
      "min": [
        -0.10181699693202972,
        -0.40147700905799866,
        -0.10181800276041031
      ],
      "max": [
        0.10181699693202972,
        -0.00120900000911206,
        0.10181800276041031
      ],
      "type": "VEC3",
      "bufferView": 0,
      "byteOffset": 0
    },
    {
      "name": "ceramic_vase_01_Cylinder.009-Mesh_0_normals",
      "componentType": 5126,
      "count": 5546,
      "min": [
        -0.9999115467071533,
        -1,
        -0.9999427199363708
      ],
      "max": [
        0.9999115467071533,
        1,
        0.9999510049819946
      ],
      "type": "VEC3",
      "bufferView": 1,
      "byteOffset": 0
    },
    {
      "name": "ceramic_vase_01_Cylinder.009-Mesh_0_texcoords",
      "componentType": 5126,
      "count": 5546,
      "min": [
        0.01347499992698431,
        0.019943999126553535
      ],
      "max": [
        0.991212010383606,
        0.9850000143051147
      ],
      "type": "VEC2",
      "bufferView": 2,
      "byteOffset": 0
    },
    {
      "name": "ceramic_vase_01_Cylinder.009-Mesh_0_indices",
      "componentType": 5123,
      "count": 30888,
      "min": [
        0
      ],
      "max": [
        5545
      ],
      "type": "SCALAR",
      "bufferView": 3,
      "byteOffset": 0
    }
  ],
  "asset": {
    "generator": "obj2gltf",
    "version": "2.0"
  },
  "buffers": [
    {
      "name": "smooth_vase",
      "byteLength": 239248,
      "uri": "data:application/octet-stream;base64,"
    }
  ],
  "bufferViews": [
    {
      "name": "bufferView_0",
      "buffer": 0,
      "byteLength": 66552,
      "byteOffset": 0,
      "byteStride": 12,
      "target": 34962
    },
    {
      "name": "bufferView_1",
      "buffer": 0,
      "byteLength": 66552,
      "byteOffset": 66552,
      "byteStride": 12,
      "target": 34962
    },
    {
      "name": "bufferView_2",
      "buffer": 0,
      "byteLength": 44368,
      "byteOffset": 133104,
      "byteStride": 8,
      "target": 34962
    },
    {
      "name": "bufferView_3",
      "buffer": 0,
      "byteLength": 61776,
      "byteOffset": 177472,
      "target": 34963
    }
  ],
  "materials": [
    {
      "name": "ceramic_vase_01",
      "pbrMetallicRoughness": {
        "baseColorFactor": [
          0.5,
          0.5,
          0.5,
          1
        ],
        "metallicFactor": 0,
        "roughnessFactor": 1
      },
      "emissiveFactor": [
        0,
        0,
        0
      ],
      "alphaMode": "OPAQUE",
      "doubleSided": false
    }
  ],
  "meshes": [
    {
      "name": "ceramic_vase_01_Cylinder.009-Mesh",
      "primitives": [
        {
          "attributes": {
            "POSITION": 0,
            "NORMAL": 1,
            "TEXCOORD_0": 2
          },
          "indices": 3,
          "material": 0,
          "mode": 4
        }
      ]
    }
  ],
  "nodes": [
    {
      "name": "ceramic_vase_01_Cylinder.009",
      "mesh": 0
    }
  ],
  "scene": 0,
  "scenes": [
    {
      "nodes": [
        0
      ]
    }
  ]
}
